<mxfile host="app.diagrams.net" modified="2022-08-14T10:38:54.885Z" agent="5.0 (Macintosh; Intel Mac OS X 10_15_7) AppleWebKit/537.36 (KHTML, like Gecko) Chrome/104.0.0.0 Safari/537.36" etag="uoNO_1waBsl1lx6VXga0" version="20.2.3" type="github">
  <diagram id="h7XZpIRrRWIzGZWQuSgL" name="Page-1">
    <mxGraphModel dx="1018" dy="659" grid="1" gridSize="10" guides="1" tooltips="1" connect="1" arrows="1" fold="1" page="1" pageScale="1" pageWidth="850" pageHeight="1100" math="0" shadow="0">
      <root>
        <mxCell id="0" />
        <mxCell id="1" parent="0" />
        <mxCell id="AgyT0vFALnixaqvY_3kQ-1" value="&lt;font style=&quot;font-size: 18px;&quot;&gt;Shl_Shr.rs&lt;/font&gt;" style="rounded=1;whiteSpace=wrap;html=1;fillColor=#f5f5f5;fontColor=#333333;strokeColor=#666666;" vertex="1" parent="1">
          <mxGeometry x="320" y="310" width="200" height="50" as="geometry" />
        </mxCell>
        <mxCell id="AgyT0vFALnixaqvY_3kQ-2" value="&lt;font style=&quot;font-size: 15px;&quot;&gt;ShlShrGadget Struct&lt;/font&gt;" style="rounded=1;whiteSpace=wrap;html=1;" vertex="1" parent="1">
          <mxGeometry x="320" y="400" width="200" height="50" as="geometry" />
        </mxCell>
        <mxCell id="AgyT0vFALnixaqvY_3kQ-3" value="&lt;font style=&quot;font-size: 15px;&quot;&gt;ExecutionGadget for &lt;b&gt;ShlShrGadget&lt;/b&gt; Impl&lt;/font&gt;" style="rounded=1;whiteSpace=wrap;html=1;fillColor=#f8cecc;strokeColor=#b85450;" vertex="1" parent="1">
          <mxGeometry x="270" y="490" width="300" height="50" as="geometry" />
        </mxCell>
        <mxCell id="AgyT0vFALnixaqvY_3kQ-4" value="&lt;font style=&quot;font-size: 15px;&quot;&gt;test Mod&lt;/font&gt;" style="rounded=1;whiteSpace=wrap;html=1;" vertex="1" parent="1">
          <mxGeometry x="320" y="580" width="200" height="50" as="geometry" />
        </mxCell>
        <mxCell id="AgyT0vFALnixaqvY_3kQ-5" value="" style="endArrow=classic;html=1;rounded=0;fontSize=15;strokeWidth=2;exitX=0.5;exitY=1;exitDx=0;exitDy=0;entryX=0.5;entryY=0;entryDx=0;entryDy=0;" edge="1" parent="1" source="AgyT0vFALnixaqvY_3kQ-1" target="AgyT0vFALnixaqvY_3kQ-2">
          <mxGeometry width="50" height="50" relative="1" as="geometry">
            <mxPoint x="400" y="440" as="sourcePoint" />
            <mxPoint x="450" y="390" as="targetPoint" />
          </mxGeometry>
        </mxCell>
        <mxCell id="AgyT0vFALnixaqvY_3kQ-6" value="" style="endArrow=classic;html=1;rounded=0;fontSize=15;strokeWidth=2;exitX=0.5;exitY=1;exitDx=0;exitDy=0;entryX=0.5;entryY=0;entryDx=0;entryDy=0;" edge="1" parent="1" source="AgyT0vFALnixaqvY_3kQ-3" target="AgyT0vFALnixaqvY_3kQ-4">
          <mxGeometry width="50" height="50" relative="1" as="geometry">
            <mxPoint x="440" y="540" as="sourcePoint" />
            <mxPoint x="440" y="580" as="targetPoint" />
          </mxGeometry>
        </mxCell>
        <mxCell id="AgyT0vFALnixaqvY_3kQ-7" value="" style="endArrow=classic;html=1;rounded=0;fontSize=15;strokeWidth=2;exitX=0.5;exitY=1;exitDx=0;exitDy=0;entryX=0.5;entryY=0;entryDx=0;entryDy=0;" edge="1" parent="1" source="AgyT0vFALnixaqvY_3kQ-2" target="AgyT0vFALnixaqvY_3kQ-3">
          <mxGeometry width="50" height="50" relative="1" as="geometry">
            <mxPoint x="440" y="380" as="sourcePoint" />
            <mxPoint x="440" y="420" as="targetPoint" />
          </mxGeometry>
        </mxCell>
      </root>
    </mxGraphModel>
  </diagram>
</mxfile>
